<?xml version="1.0" encoding="utf-8"?>
<!-- Generator: Adobe Illustrator 25.0.0, SVG Export Plug-In . SVG Version: 6.00 Build 0)  -->
<svg version="1.1" id="Capa_1" xmlns="http://www.w3.org/2000/svg" xmlns:xlink="http://www.w3.org/1999/xlink" x="0px" y="0px"
	 viewBox="0 0 580 575" style="enable-background:new 0 0 580 575;" xml:space="preserve">
<style type="text/css">
	.st0{fill:#EFEFEF;}
</style>
<g id="XMLID_12_">
	<g>
		<path id="XMLID_83_" d="M411.35,271.42c26.38,0,51.19-10.27,69.84-28.93c18.65-18.65,28.93-43.46,28.93-69.84V73.87H312.58v98.77
			c0,26.38,10.27,51.19,28.93,69.84S384.97,271.42,411.35,271.42z M488.21,95.79v76.85c0,20.53-7.99,39.83-22.51,54.34
			c-14.52,14.52-33.82,22.51-54.34,22.51c-20.53,0-39.83-7.99-54.34-22.51c-14.52-14.52-22.51-33.82-22.51-54.34V95.79H488.21z"/>
		<path id="XMLID_80_" d="M70.02,415.69c0,26.38,10.27,51.19,28.93,69.84c18.66,18.65,43.46,28.93,69.84,28.93
			s51.19-10.27,69.84-28.93c18.66-18.66,28.93-43.46,28.93-69.84v-98.77H70.02V415.69z M245.64,338.83v76.85
			c0,20.53-7.99,39.83-22.51,54.34c-14.52,14.52-33.82,22.51-54.34,22.51c-20.53,0-39.83-7.99-54.34-22.51
			c-14.52-14.52-22.51-33.82-22.51-54.34v-76.85H245.64z"/>
		<path id="XMLID_79_" d="M406.27,404.73v21.92h81.2c-2.34,16.34-9.96,31.61-21.74,43.39c-14.52,14.52-33.82,22.51-54.34,22.51
			c-20.53,0-39.83-7.99-54.34-22.51c-14.52-14.52-22.51-33.82-22.51-54.34c0-20.53,7.99-39.83,22.51-54.34
			c14.52-14.51,33.82-22.51,54.34-22.51c30.52,0,58.17,18.07,70.42,46.03l1.66,3.78l20.07-8.8l-1.66-3.78
			c-15.75-35.93-51.27-59.14-90.5-59.14c-26.38,0-51.19,10.27-69.84,28.93c-18.66,18.66-28.93,43.46-28.93,69.84
			c0,26.38,10.27,51.19,28.93,69.84c18.66,18.65,43.46,28.93,69.84,28.93c26.38,0,51.19-10.27,69.84-28.93
			c18.66-18.66,28.93-43.46,28.93-69.84v-10.96H406.27z"/>
		<polygon id="XMLID_78_" points="91.76,132.2 161.93,272.29 175.38,272.29 245.47,132.22 245.47,272.39 267.39,272.39 
			267.39,74.17 250.14,74.17 168.63,236.92 87.53,74.17 69.85,74.17 69.85,272.39 91.76,272.39 		"/>
	</g>
</g>
</svg>
