<?xml version="1.0" encoding="utf-8"?>
<!-- Generator: Adobe Illustrator 25.0.0, SVG Export Plug-In . SVG Version: 6.00 Build 0)  -->
<svg version="1.1" id="Capa_1" xmlns="http://www.w3.org/2000/svg" xmlns:xlink="http://www.w3.org/1999/xlink" x="0px" y="0px"
	 viewBox="0 0 666 192" style="enable-background:new 0 0 666 192;" xml:space="preserve">
<style type="text/css">
	.st0{fill:#EFEFEF;}
</style>
<g>
	<path d="M258.02,168.85c16.6,0,32.21-6.46,43.95-18.2c11.74-11.74,18.2-27.35,18.2-43.95V44.54H195.87v62.15
		c0,16.6,6.47,32.21,18.2,43.95C225.81,162.38,241.42,168.85,258.02,168.85z M306.38,58.33v48.36c0,12.92-5.03,25.06-14.16,34.2
		c-9.13,9.13-21.28,14.16-34.2,14.16c-12.92,0-25.06-5.03-34.2-14.16c-9.13-9.13-14.16-21.28-14.16-34.2V58.33H306.38z"/>
	<path d="M350.05,107.28c0,16.6,6.46,32.21,18.2,43.95c11.74,11.74,27.35,18.2,43.95,18.2c16.6,0,32.21-6.46,43.95-18.2
		c11.74-11.74,18.2-27.35,18.2-43.95V45.13H350.05V107.28z M460.56,58.92v48.36c0,12.92-5.03,25.06-14.16,34.2
		c-9.13,9.13-21.28,14.16-34.2,14.16c-12.92,0-25.06-5.03-34.2-14.16c-9.13-9.13-14.16-21.28-14.16-34.2V58.92H460.56z"/>
	<path d="M557.51,100.38v13.79h51.09c-1.47,10.28-6.27,19.89-13.68,27.3c-9.13,9.13-21.28,14.16-34.2,14.16
		c-12.92,0-25.06-5.03-34.2-14.16c-9.13-9.13-14.16-21.28-14.16-34.2s5.03-25.06,14.16-34.2c9.13-9.13,21.28-14.16,34.2-14.16
		c19.21,0,36.6,11.37,44.32,28.96l1.04,2.38l12.63-5.54l-1.04-2.38c-9.91-22.61-32.27-37.22-56.95-37.22
		c-16.6,0-32.21,6.47-43.95,18.2c-11.74,11.74-18.2,27.35-18.2,43.95s6.46,32.21,18.2,43.95c11.74,11.74,27.35,18.2,43.95,18.2
		c16.6,0,32.21-6.46,43.95-18.2c11.74-11.74,18.2-27.35,18.2-43.95v-6.9H557.51z"/>
	<polygon points="56.91,81.24 101.07,169.39 109.53,169.39 153.64,81.25 153.64,169.46 167.43,169.46 167.43,44.73 156.58,44.73 
		105.28,147.14 54.25,44.73 43.12,44.73 43.12,169.46 56.91,169.46 	"/>
</g>
</svg>
