<?xml version="1.0" encoding="utf-8"?>
<!-- Generator: Adobe Illustrator 25.0.0, SVG Export Plug-In . SVG Version: 6.00 Build 0)  -->
<svg version="1.1" id="Capa_1" xmlns="http://www.w3.org/2000/svg" xmlns:xlink="http://www.w3.org/1999/xlink" x="0px" y="0px"
	 viewBox="0 0 244 489" style="enable-background:new 0 0 244 489;" xml:space="preserve">
<style type="text/css">
	.st0{fill:#EFEFEF;}
</style>
<g>
	<path id="XMLID_35_" d="M122,477.24L122,477.24c-44.27,0-80.49-36.22-80.49-80.49v-291.5c0-44.27,36.22-80.49,80.49-80.49h0
		c44.27,0,80.49,36.22,80.49,80.49v291.5C202.49,441.02,166.27,477.24,122,477.24z"/>
	<g id="XMLID_1_">
		<path id="XMLID_32_" class="st0" d="M92.34,209.34c0,7.86,3.06,15.24,8.61,20.8c5.55,5.56,12.94,8.61,20.8,8.61
			c7.86,0,15.24-3.06,20.8-8.61c5.56-5.56,8.61-12.94,8.61-20.8v-29.41H92.34V209.34z M143.9,187.2v22.15
			c0,5.92-2.3,11.48-6.49,15.66c-4.18,4.18-9.74,6.49-15.66,6.49c-5.92,0-11.48-2.3-15.66-6.49c-4.18-4.18-6.49-9.74-6.49-15.66
			V187.2H143.9z"/>
		<path id="XMLID_29_" class="st0" d="M92.34,292.13c0,7.86,3.06,15.24,8.61,20.8c5.56,5.56,12.94,8.61,20.8,8.61
			s15.24-3.06,20.8-8.61c5.56-5.56,8.61-12.94,8.61-20.8v-29.41H92.34V292.13z M143.9,269.99v22.15c0,5.92-2.3,11.48-6.49,15.66
			c-4.18,4.18-9.74,6.49-15.66,6.49c-5.92,0-11.48-2.3-15.66-6.49c-4.18-4.18-6.49-9.74-6.49-15.66v-22.15H143.9z"/>
		<path id="XMLID_28_" class="st0" d="M119.84,378.86h23.77c-0.74,4.57-2.86,8.69-6.19,12.03c-4.18,4.18-9.74,6.49-15.66,6.49
			c-5.92,0-11.48-2.3-15.66-6.49c-4.18-4.18-6.49-9.74-6.49-15.66c0-5.92,2.3-11.48,6.49-15.66c4.18-4.18,9.74-6.49,15.66-6.49
			c8.8,0,16.76,5.21,20.29,13.26l0.65,1.49l6.65-2.92l-0.65-1.49c-4.69-10.7-15.27-17.61-26.95-17.61c-7.86,0-15.24,3.06-20.8,8.61
			c-5.56,5.56-8.61,12.94-8.61,20.8c0,7.86,3.06,15.24,8.61,20.8c5.56,5.56,12.94,8.61,20.8,8.61s15.24-3.06,20.8-8.61
			c5.56-5.56,8.61-12.94,8.61-20.8v-3.63h-31.33V378.86z"/>
		<polygon id="XMLID_11_" class="st0" points="145.43,97.18 121.76,144.44 98.21,97.18 92.34,97.18 92.34,156.2 99.61,156.2 
			99.61,116.39 119.54,156.17 124,156.17 143.9,116.39 143.9,156.2 151.17,156.2 151.17,97.18 		"/>
	</g>
</g>
</svg>
